#!OML:ASF Y:\EmotionMaleHayes\Project 1\Capture day 1\Session 1\Male1.ASF
:FULLY-SPECIFIED
:DEGREES
634
root 41.5915 17.0087 -0.755839 956.827 85.2214 965.17
lowerback 10.4116 2.78754 3.60332
upperback 2.9391 4.25107 1.72189
thorax -2.63497 2.15572 -0.762973
lowerneck -22.4438 -1.31571 1.49621
upperneck 21.635 -2.60069 1.32146
head 10.6747 -0.842783 -0.165578
rclavicle 2.12405e-014 3.72721e-016
rhumerus -13.8227 6.81811 -79.3153
rradius 37.4525
rwrist -0.405956
rhand -11.6096 -32.6871
rfingers 7.12502
rthumb 14.4332 -62.1652
lclavicle 2.12405e-014 3.72721e-016
lhumerus -43.5202 1.53446 84.0366
lradius 19.3981
lwrist -27.1479
lhand -7.57705 -26.8307
lfingers 7.12502
lthumb 18.3158 2.32697
rfemur 9.88653 -4.01861 24.9839
rtibia 8.08342
rfoot -12.6249 1.49415
rtoes 15.1974
lfemur -13.5227 5.15057 -8.31326
ltibia 34.7989
lfoot -10.3409 8.70318
ltoes 6.39745
635
root 41.6879 17.0023 -0.793417 957.398 84.7056 965.675
lowerback 10.3234 2.69854 4.52899
upperback 2.89388 4.22492 1.68506
thorax -2.56374 2.14184 -1.307
lowerneck -22.6595 -1.26127 1.89805
upperneck 21.9629 -2.53971 0.810542
head 10.8214 -0.838609 -0.409591
rclavicle 5.47502e-015 1.94079e-014
rhumerus -13.3336 6.93786 -79.1295
rradius 37.5515
rwrist -0.417941
rhand -11.5366 -32.7846
rfingers 7.12502
rthumb 14.5035 -62.2576
lclavicle 5.47502e-015 1.94079e-014
lhumerus -43.8036 1.27233 84.0808
lradius 19.5932
lwrist -25.5168
lhand -8.45961 -27.0043
lfingers 7.12502
lthumb 17.4666 2.23096
rfemur 10.4362 -5.5107 24.8709
rtibia 7.79162
rfoot -12.5667 2.83308
rtoes 14.7612
lfemur -13.3545 4.68034 -8.04576
ltibia 32.1979
lfoot -9.55681 8.50852
ltoes 5.98723
636
root 41.7947 17.0035 -0.812719 950.77 85.4849 958.903
lowerback 10.01 2.78805 3.57847
upperback 2.90708 4.21055 1.37383
thorax -2.42376 2.13628 -1.08039
lowerneck -22.4835 -1.2415 1.83201
upperneck 21.8844 -2.52895 0.993356
head 10.764 -0.817238 -0.329042
rclavicle 1.73502e-014 5.92627e-015
rhumerus -12.9032 7.16432 -79.0069
rradius 37.7058
rwrist -0.533835
rhand -11.5935 -32.8869
rfingers 7.12502
rthumb 14.4487 -62.3639
lclavicle 1.73502e-014 5.92627e-015
lhumerus -44.07 0.960133 84.2548
lradius 20.0458
lwrist -23.1791
lhand -8.50213 -26.8281
lfingers 7.12502
lthumb 17.4256 2.4108
rfemur 11.1184 -6.05514 23.3298
rtibia 7.23247
rfoot -12.5465 3.49699
rtoes 14.5731
lfemur -13.0257 4.22703 -9.39399
ltibia 29.5373
lfoot -9.11033 8.40216
ltoes 10.4958
637
root 41.8694 17.003 -0.821917 956.858 85.0317 964.904
lowerback 9.73101 2.80236 4.16918
upperback 3.10561 4.28098 1.56299
thorax -2.03208 2.18542 -1.19612
lowerneck -22.531 -1.24776 1.67986
upperneck 21.6173 -2.52996 1.15811
head 10.6793 -0.816511 -0.244367
rclavicle -3.95383e-014 -2.75193e-014
rhumerus -12.0895 7.43093 -78.7743
rradius 37.9209
rwrist -0.86678
rhand -11.6171 -33.0013
rfingers 7.12502
rthumb 14.426 -62.4799
lclavicle -3.95383e-014 -2.75193e-014
lhumerus -43.8828 1.23835 84.2373
lradius 20.4461
lwrist -21.8084
lhand -8.60572 -26.6834
lfingers 7.12502
lthumb 17.3259 2.56436
rfemur 11.3753 -5.82991 24.1203
rtibia 7.13061
rfoot -12.7981 3.53434
rtoes 15.8029
lfemur -13.0127 4.19431 -8.54413
ltibia 27.4028
lfoot -8.24227 8.01176
ltoes 5.94249
638
root 41.9701 17.0008 -0.846453 953.432 85.5368 961.338
lowerback 9.69849 2.89103 3.71783
upperback 2.90579 4.34181 1.33031
thorax -2.23416 2.20425 -1.19768
lowerneck -22.3648 -1.36276 1.53601
upperneck 21.7672 -2.66663 1.28311
head 10.7074 -0.87064 -0.195738
rclavicle -5.23068e-014 -5.26779e-015
rhumerus -12.0997 7.64395 -78.6831
rradius 38.1778
rwrist -1.12295
rhand -11.6863 -32.7853
rfingers 7.12502
rthumb 14.3593 -62.2687
lclavicle -5.23068e-014 -5.26779e-015
lhumerus -44.4498 1.5658 83.949
lradius 20.8191
lwrist -21.1818
lhand -8.65752 -26.5701
lfingers 7.12502
lthumb 17.2761 2.68205
rfemur 11.8297 -6.76088 22.9131
rtibia 6.85286
rfoot -12.8492 4.312
rtoes 12.913
lfemur -12.7166 3.78379 -9.42929
ltibia 25.058
lfoot -7.41625 7.88372
ltoes 7.6287
639
root 42.0711 16.9972 -0.87622 948.35 86.0325 956.151
lowerback 9.3292 2.91645 3.21334
upperback 3.00929 4.29987 1.11572
thorax -1.94627 2.18935 -1.10775
lowerneck -22.6764 -1.38959 1.73246
upperneck 22.0865 -2.66273 0.81357
head 10.8715 -0.905384 -0.401185
rclavicle -5.41067e-015 -7.65321e-015
rhumerus -11.5844 8.00819 -78.5337
rradius 38.351
rwrist -1.38157
rhand -11.91 -32.7417
rfingers 7.12502
rthumb 14.1437 -62.2402
lclavicle -5.41067e-015 -7.65321e-015
lhumerus -44.5789 2.11015 83.6447
lradius 21.1231
lwrist -20.8423
lhand -8.73665 -26.566
lfingers 7.12502
lthumb 17.1999 2.6928
rfemur 12.3445 -7.46637 21.6635
rtibia 6.65073
rfoot -12.8955 5.20063
rtoes 13.1365
lfemur -12.38 3.32162 -10.4357
ltibia 22.9433
lfoot -7.3583 7.72267
ltoes 9.25948
640
root 42.1604 16.9987 -0.890039 943.011 86.6173 950.68
lowerback 9.04756 2.99771 2.39261
upperback 3.0758 4.31578 0.960264
thorax -1.77082 2.19846 -0.794265
lowerneck -22.6001 -1.27423 1.91081
upperneck 21.9855 -2.49366 0.55842
head 10.8139 -0.849614 -0.495406
rclavicle 2.30155e-015 1.08586e-014
rhumerus -11.1151 8.37914 -78.3681
rradius 38.5772
rwrist -1.39539
rhand -11.9892 -33.1055
rfingers 7.12502
rthumb 14.0674 -62.6094
lclavicle 2.30155e-015 1.08586e-014
lhumerus -44.6683 2.41214 83.5696
lradius 21.4204
lwrist -20.2777
lhand -8.92878 -26.4437
lfingers 7.12502
lthumb 17.015 2.83108
rfemur 12.6321 -7.25667 20.7921
rtibia 6.57068
rfoot -13.1481 5.19875
rtoes 13.6387
lfemur -12.0856 2.97224 -11.2955
ltibia 21.013
lfoot -5.92088 7.49049
ltoes 0.518784
641
root 42.2527 16.9843 -0.879749 963.516 85.2284 971.774
lowerback 9.58657 3.03775 4.15076
upperback 3.16609 4.57898 1.49279
thorax -1.87084 2.33818 -1.27698
lowerneck -22.323 -1.21871 1.95784
upperneck 21.7499 -2.44823 0.662871
head 10.6774 -0.81696 -0.45472
rclavicle 2.18073e-014 6.90777e-015
rhumerus -10.8672 8.34255 -78.3071
rradius 38.7414
rwrist -0.994502
rhand -11.9435 -33.1546
rfingers 7.12502
rthumb 14.1114 -62.6554
lclavicle 2.18073e-014 6.90777e-015
lhumerus -44.7788 2.22497 83.6036
lradius 21.645
lwrist -19.6086
lhand -9.19033 -26.1387
lfingers 7.12502
lthumb 16.7632 3.15759
rfemur 13.5516 -5.9142 23.6982
rtibia 6.23551
rfoot -13.5504 4.05415
rtoes 14.5211
lfemur -11.0374 3.14107 -8.47683
ltibia 19.2394
lfoot -6.22923 7.50382
ltoes 6.36064
642
root 42.3347 16.9751 -0.899163 966.054 85.2312 974.331
lowerback 9.65999 3.06661 4.23168
upperback 3.16888 4.62793 1.45761
thorax -1.89633 2.36238 -1.36746
lowerneck -22.4258 -1.18536 2.07217
upperneck 21.7387 -2.44695 0.668092
head 10.6913 -0.806106 -0.472309
rclavicle -3.03581e-014 -3.97569e-016
rhumerus -10.4837 8.42558 -78.2998
rradius 38.8125
rwrist -0.804558
rhand -12.0356 -32.8511
rfingers 7.12502
rthumb 14.0227 -62.3581
lclavicle -3.03581e-014 -3.97569e-016
lhumerus -44.7825 2.31372 83.5517
lradius 21.8534
lwrist -19.2616
lhand -9.16763 -25.6942
lfingers 7.12502
lthumb 16.7851 3.60028
rfemur 13.9192 -5.84405 23.6778
rtibia 6.19932
rfoot -13.776 4.23259
rtoes 15.0443
lfemur -10.5784 2.87436 -8.40854
ltibia 17.6942
lfoot -5.7361 7.24702
ltoes 4.91189
643
root 42.4412 16.9731 -0.927447 966.029 85.5773 974.051
lowerback 9.1184 3.09916 3.91941
upperback 3.13305 4.60367 1.31928
thorax -1.65022 2.35153 -1.3003
lowerneck -22.2903 -1.2426 2.06923
upperneck 21.7229 -2.5002 0.590392
head 10.6584 -0.841317 -0.50677
rclavicle 1.63687e-014 -1.20265e-014
rhumerus -10.322 8.62981 -78.3199
rradius 39.057
rwrist -0.874675
rhand -12.0144 -32.7271
rfingers 7.12502
rthumb 14.0431 -62.2327
lclavicle 1.63687e-014 -1.20265e-014
lhumerus -44.8763 2.6082 83.4047
lradius 21.9664
lwrist -19.2626
lhand -8.96069 -25.3743
lfingers 7.12502
lthumb 16.9843 3.90311
rfemur 14.1198 -6.33799 22.8948
rtibia 6.23567
rfoot -14.0033 4.95149
rtoes 14.8938
lfemur -10.2233 2.5535 -9.02189
ltibia 16.1462
lfoot -5.4109 7.18614
ltoes 4.67049
